<?xml version="1.0" encoding="utf-8"?>
<svg viewBox="0 0 345.32001 345.32001" version="1.1" id="svg35" width="345.32001" height="345.32001" xmlns="http://www.w3.org/2000/svg">
  <defs id="defs1">
    <style id="style1">
      .cls-1 {
        fill: #fff;
      }

      .cls-2 {
        fill: #ea1b21;
      }

      .cls-3 {
        fill: #19196d;
      }

      .cls-4 {
        fill: #00983d;
      }
    </style>
  </defs>
  <g id="nuovi_loghi" data-name="nuovi loghi" transform="translate(-92.46,-68.02)">
    <g id="g35">
      <polygon class="cls-4" points="107.25,299.88 107.25,156.67 163.29,124.32 163.29,107.27 92.46,148.16 92.46,308.45 125.09,327.28 125.09,352.04 163.29,374.1 163.29,357.05 139.95,343.57 139.95,318.76 " id="polygon28"/>
      <g id="g30">
        <polygon class="cls-1" points="299.25,107.27 231.27,68.02 163.29,107.27 163.29,124.32 231.27,85.07 299.25,124.32 " id="polygon29"/>
        <polygon class="cls-1" points="163.29,374.1 231.27,413.34 299.25,374.1 299.25,357.05 231.27,396.29 163.29,357.05 " id="polygon30"/>
      </g>
      <polygon class="cls-2" points="355.29,156.67 355.29,299.88 322.59,318.76 322.59,343.57 299.25,357.05 299.25,374.1 337.46,352.04 337.46,327.28 370.08,308.45 370.08,148.16 299.25,107.27 299.25,124.32 " id="polygon31"/>
      <g id="g34">
        <path class="cls-1" d="m 340.5,291.34 -32.7,18.88 v 24.81 l -76.53,44.18 -76.53,-44.18 v -24.81 l -32.7,-18.88 V 165.21 l 109.23,-63.06 109.23,63.06 z" id="path31"/>
        <g id="g33">
          <path class="cls-3" d="m 325.68,174.48 -93.27,53.85 v 107.7 l 93.27,-53.85 z m -55.95,113.3 5.98,-26.45 c -3.64,-0.35 -6.31,-4.04 -6.63,-10.06 -0.45,-8.53 4.02,-18.48 9.97,-22.22 5.95,-3.74 11.14,0.15 11.58,8.68 0.31,6.02 -1.82,12.73 -5.19,17.48 l 8.08,18.84 -23.8,13.74 z" id="path32"/>
          <path class="cls-3" d="m 231.27,85.07 -124.02,71.6 v 143.21 l 32.7,18.88 v 24.81 l 91.32,52.72 91.32,-52.72 v -24.81 l 32.7,-18.88 V 156.67 Z m 109.23,206.27 -32.7,18.88 v 24.81 l -76.53,44.18 -76.53,-44.18 v -24.81 l -32.7,-18.88 V 165.21 l 109.23,-63.06 109.23,63.06 z" id="path33"/>
        </g>
      </g>
    </g>
  </g>
</svg>