<svg id="level1" xmlns="http://www.w3.org/2000/svg" xmlns:xlink="http://www.w3.org/1999/xlink" viewBox="0 0 200 250"><defs><style>.cls-1,.cls-5{fill:#305d88;}.cls-1,.cls-2,.cls-3,.cls-4{fill-rule:evenodd;}.cls-2{fill:#5a833a;}.cls-3{fill:#f05123;}.cls-4{fill:#f89a2f;}.cls-6{fill:url(#Sfumatura_senza_nome_35);}</style><linearGradient id="Sfumatura_senza_nome_35" x1="60.38" y1="242.22" x2="60.38" y2="141.67" gradientUnits="userSpaceOnUse"><stop offset="0.42" stop-color="#305d88"/><stop offset="1" stop-color="#2484c6" stop-opacity="0"/></linearGradient></defs><title>formsTavola disegno 1</title><path class="cls-1" d="M133.94,145.35H116.39v51.37L76.62,147.32a20.42,20.42,0,0,0-5.25-5,10.69,10.69,0,0,0-1.21-.62c.11,2.21,1,4.57.41,6.64a4.57,4.57,0,0,1-.33.95c-.79,1.64-2.64,3.38-3.75,4.6-2.06,2.26-2-1.14-2.92-2.3-.4-.5-.68-.28-.87.41-.67,3,.2,13,1.47,13.37.94.3,1,1.21.68,2.42-.93,3.42-6,9.47-6.41,10.7-.76,2.64,2,3.41,1.32,5.32A5.26,5.26,0,0,1,57.89,186a1.46,1.46,0,0,0-.44.61,3.28,3.28,0,0,0,2.43,3.6c.47.08,2.26,4.44,2.22,4.88a.27.27,0,0,1,0,.1h0c0,.44-4.2,4.24-5.24,6.15v.93h0c.87.42,3.9,2,3.46,2.25,0,.09-.08.14-.31.14a.31.31,0,0,0-.21.06c0,.35,1,1.21,1.5,1.21.69,0,.43,5.13,1.25,5.15,1.07,0,2.16,1.24,2.64,2.17.34.67.37,1,.26,1.07-.11.32-.73,0-.94.26v0c-.87,3,5.19,2.41,6.94,3,2.11.69-.05,4.7.69,6,.94,1.59,1.66,1.92,2.33,1.1a4,4,0,0,0,.4-.64,1.43,1.43,0,0,1,.18-.28c.5-.69.9.43,1.15,1.72a24.69,24.69,0,0,0,1-8l-.27-40.92L103.7,209c.05-2.7,1.51-6.18,3-7.43,1-.86,3.82-2.94,4.39-.71.47,1.85,2.49,1,2.49,2.25,0,.49,2.07.64,2.49.52s.67-2.65,1.07-2.94c.65-.47,4.6-1.54,4.81-.35s7.57.82,7.84,3.12c0,.06,3.21,3.13,3.21,3.29s1.43,1,1.78,1.73c.18.36,1.09.39,2.2.32v-57C136.44,149.71,135.39,146.81,133.94,145.35Z"/><path class="cls-1" d="M63.75,218.63c-.06.07-2.71-1.31-2.71-.62,0,.9-.77,2.51-.09,3.6.15.24.74.44.81.7.21.75,0,2,.18,2.87a2.56,2.56,0,0,1,.12.24c.34.82,3.06,3.68,3.72,2.94l0-.07c.37-.84.45-4.95.71-5.18a.12.12,0,0,1,0-.06,1,1,0,0,0,.41-.36C68,221,65.77,216.17,63.75,218.63Z"/><path class="cls-1" d="M58.51,211.74c-1.6.6-4.24,1-4,2.9,0,.26.68-.14.81.09.65,1.13.07,3.87,2.8,3s2.26-5.34,2.26-7.12C60.41,210.26,58.59,211.71,58.51,211.74Z"/><path class="cls-2" d="M140.18,174.43c2.94-9.81,1.89-25.59-4.15-33.93-5.76-8-13.92-8.69-22.79-7v53.94L91.31,160.35V133.46c0-4.39-.35-7.56-1-9.49a14.43,14.43,0,0,0-3.56-5.39h31.93q21.84,0,34,11.24l.79.75a5,5,0,0,0,.57,1.78c.56,1,2.49,1.15.56,3.38-2.38,2.74-2.15,3.81.39,6.57.08.08-4.58,4.53-3,5.54s-.39,1.58,1.25,4.16c.76,1.19-1.34,2.33-1.78,3.46-1.51,3.89,1.09,7.65.36,10.91-.05.24-2.71,9-1.25,9s.12,5.48-.36,6.23c-1.38,2.17-4.46,7.44-1.25,9,2.33,1.13-2.33,4.8-2.67,6.06-.15.55-.32,1.15-.46,1.77a31.54,31.54,0,0,1-5.55,2.47Z"/><path class="cls-3" d="M71.92,84.48h8.39q5.93,0,8.72-3c1.86-2,2.78-5.09,2.78-9.31,0-3.86-1-6.8-2.93-8.82s-4.79-3-8.44-3H71.92ZM54.78,28.22c-1.37-2.05-2.19-.53-3.73,0-.59.21,0,2.8-.93,2.94s-2.77,2-3.14,2.6c-.49.78.08,2.24-.47,2.94-1.54,2,.78,4.52,2.45,1.81.68-1.1-.58-1.28-.7-1.81-.53-2.32.94-2.84,2.21-4.08s3.44.08,4-.68A3.54,3.54,0,0,0,54.78,28.22ZM87.38,44h2.37q13.48,0,20.7,6.7c4.83,4.48,7.24,10.83,7.24,19.07q0,10.81-5.31,16.66T97.18,92.24v.92a17.77,17.77,0,0,1,9.71,2.41,12.94,12.94,0,0,1,5.29,7.14l4,12.66H90.43l-2-6.59a11,11,0,0,0-3.83-6,11.34,11.34,0,0,0-6.91-2H71.92v21.12h9.16V139H59.66c-1-2.39-.83-6.77-.42-9a5.89,5.89,0,0,1,.18-.68c.23-.68,5.34-3.93,6.11-4.06.47-.07.74-.58.88-1.36.7-3.08-1.21-11.32-1.25-11.32-.76,0-.68-1.64-.43-3.12a12.11,12.11,0,0,1,.52-2,7.48,7.48,0,0,0,.64-2c.23-1.14.05-2.21-1.15-2.6-.67-.22-1-3.35-1.94-3.79-.19-.09-5-.16-5.11-1.43a2.54,2.54,0,0,1,1-1A2.37,2.37,0,0,0,59.37,95c.43-2.44-.19-7.36-1.46-9.41h-.24a1.63,1.63,0,0,0-.76-.61c-.06,0,.05-.22,0-.27-1.42-1.39-3.49-.1-2.08-3.11.63-1.35-1.7-6.38-2.53-6.23-2.79.5-3.79,2.55-6.22,1.91-1.73-.46,2.39-4.71-1.11-4.46-.69,0-1.18,3.55-1.53,4.06-2.06,3-3.54-4-1.81-4.46,2.5-.71,4.28-3.38,3.05-5.66-1-1.93-3.71-.47-3-5.16,0-.33,7.48-13.36,5-13.66a33.59,33.59,0,0,1-2.78-3.25c-1.35-5.28,2.78-4.13,2.78-3.52,0,1.7.56,4.07.56,5.41s6.87,5.35,7.78,5.68c1.69.62,4.43,0,6,.68,2.22.94,1,1.59,3.75,1.22,6-.83,5.62.28,8.75-3.52C76.41,47,83.09,46.78,87.38,44Z"/><path class="cls-4" d="M113.44,89.85a12.63,12.63,0,0,0,9.65,3.93c3.62,0,6.42-1,8.39-3a9.88,9.88,0,0,0,2.93-7.06,9.74,9.74,0,0,0-2.8-6.83q-2.49-2.67-10.77-5.07,0-1,0-2.06c0-8.12-2.18-15.79-8.26-21.42-5.25-4.87-12-6.9-19-7.42l0,0-3.28-.11c.07-.14.14-.28.2-.42a2.45,2.45,0,0,1,1.11-1.08c1.7-.83.09-7.42,3.47-4.73,1,.77,6.63-5.33,8.19-6.09.75-.36,2.21-2.95,2.92-3,2.91-.11,4.48.55,5.42-2.71.31-1.09,5.51-.26,2.08-4.87-.71-1-.52-4.93,1.67-3.52s2.84-3.84,4.58.41c.38.92,2.48,1.42,2.78,1.89s-.24,1,0,1.35c1.74,2.82,6.12-2.32,8.33,2.7a26.59,26.59,0,0,0,2.22,1.89c.52.7.12,3.82.69,4.19,1.75,1.14,1.39-3.73,2.64-3.79,4.2-.23,3.57-3.3,4.3,1.49,0,.21,2.93,1.57,2.64,3.25-.18,1-4.64,0-3.61,6.09.06.36,2.25-2.18,2.92.68,0,.17,4.07-.78,5-.54.71.18,3.71,3.14,1,2.84-.44,0-.49-2.7-2.78-1.22s-.66,2.44-1.39,4.46c-.93,2.6-4.78.75-5.28,1.89a3.09,3.09,0,0,0-.28,1l-6.54,1.09-.43-3.45q-1.07-5.21-3.7-7.79c-2-2-4.85-3-8.43-3-3,0-5.19.73-6.68,2.24a7.41,7.41,0,0,0-2.24,5.46,5.88,5.88,0,0,0,1.84,4.2c1.21,1.3,4,2.49,8.54,3.61q16.66,4.28,23.86,8.68A27,27,0,0,1,155.83,65q.54,1.07,1,2.17a21,21,0,0,0-.65,2.1c-.4,1.54-.26,2.93,2.38,3.83a35.11,35.11,0,0,1,.57,6.42,36,36,0,0,1-2.42,13.19,8.88,8.88,0,0,1-.71.67,16.26,16.26,0,0,0-4.63,5.33c-1.22,2.16-2.75,4.35-3.33,6.54v0A29.33,29.33,0,0,1,142.5,109q-7.84,4.11-19.8,4.11-2,0-3.94-.09l-3.51-11.23A15.92,15.92,0,0,0,108.82,93a19.68,19.68,0,0,0,4.62-3.15M144.21,29.8c-2.94,0,.08.83.35.57S144.41,29.8,144.21,29.8ZM145.84,28c-3,0,.57,2.32,1,1.7C147.16,29.34,146.27,28,145.84,28ZM134.08,15.88c-.08.75-.76.73.12,1.58,1.34,1.31-1.54,1.92,1.28,2.94,1.88.69,2.11-1.93,1.16-1.93-.48,0,1.71-4.31-.12-4.53-.92-.11-1.29.9-2,.79-1.16-.19-.56-5.69-4.08-2.26-1.07,1-1.78,4.85-.58,5.44.57.28,2.69,2.24,2.79.68C132.69,18.54,134.16,15.12,134.08,15.88Zm-6.17-2.27c-.2-1-1.94-1.31-2.56-.79-2.06,1.71,3.55,5,2.68,2.15C127.78,14.16,128,14.07,127.91,13.61Zm4-5.1c-.05.1-1.73-.31-1.75-.23-.15.89-4.09-.6-4.31-.57-.39.06-.1.69.12.79,1.65.8-2,2.4.82,2.94,1.36.26.25-1.44,1.16-1.93.73-.39,3.81,0,4-.45C131.91,9,132,8.31,131.87,8.52Z"/><path class="cls-5" d="M113.09,213.52a9.89,9.89,0,0,0-3.29-1.74,11.54,11.54,0,0,0-3.32-.55H92.71a10.13,10.13,0,0,0-4.73,1,9.69,9.69,0,0,0-4.89,5.84,11.55,11.55,0,0,0-.55,3.32v10.71a10.13,10.13,0,0,0,1,4.73,9.71,9.71,0,0,0,5.83,4.89,11.58,11.58,0,0,0,3.33.55h13.43v-6.6H92.77a3.77,3.77,0,0,1-2.59-.94,3.35,3.35,0,0,1-1.07-2.63V221.45a3.77,3.77,0,0,1,.94-2.59,3.39,3.39,0,0,1,2.66-1.07h13.77a3.67,3.67,0,0,1,2.53.94,3.33,3.33,0,0,1,1.07,2.6,3.74,3.74,0,0,1-.94,2.59,3.42,3.42,0,0,1-2.66,1.07H93.05v6.57h13.43a10.17,10.17,0,0,0,4.73-1,9.76,9.76,0,0,0,3.15-2.54,9.88,9.88,0,0,0,1.74-3.29,11.55,11.55,0,0,0,.55-3.32,10.11,10.11,0,0,0-1-4.73A9.77,9.77,0,0,0,113.09,213.52Z"/><path class="cls-5" d="M155.27,220.47a12.8,12.8,0,0,0-1.71-3.53,11.92,11.92,0,0,0-2.45-2.59,15.11,15.11,0,0,0-2.92-1.78,14.1,14.1,0,0,0-3.1-1,15,15,0,0,0-3-.31h-17.2a3.51,3.51,0,0,0-1.36.26,3.57,3.57,0,0,0-1.13.74,3.32,3.32,0,0,0-.75,1.09,3.42,3.42,0,0,0-.27,1.35v27.61h7v-24.1h13.7a7.57,7.57,0,0,1,2.7.47,6.39,6.39,0,0,1,2.18,1.39,6.5,6.5,0,0,1,1.47,2.15,7.11,7.11,0,0,1,.54,2.82v17.28h7V225A15.13,15.13,0,0,0,155.27,220.47Z"/><path class="cls-6" d="M63.06,232.12H58.61a5,5,0,0,1-3.54-1.34,4.79,4.79,0,0,1-1.42-3.62V141.67H43.56v85.49a15.28,15.28,0,0,0,1.47,7,14.1,14.1,0,0,0,3.75,4.65,14.56,14.56,0,0,0,4.88,2.58,17.43,17.43,0,0,0,4.95.79H77.2V232.12H63.06Z"/></svg>